<svg viewBox="0 0 500 330" xmlns="http://www.w3.org/2000/svg" xmlns:xlink="http://www.w3.org/1999/xlink"><clipPath id="a"><path d="m470 230.56c0-24.14-46.63-43.71-104.15-43.71s-104.17 19.57-104.17 43.71 46.64 43.71 104.17 43.71 104.15-19.57 104.15-43.71z"/></clipPath><path d="m444.57 179.23c-21.47-9-49.69-14-79.46-14-28.08 0-71.61 17.42-71.36-14.33 0-9.2-1-24.06-1-24.06l.25-48.75.56-3.76 4.24-12.79.54-3.63s4.66-8.47-14.86-17.21c-6.33 0-19.26 1.11-24.57-2.13s1.72-20.81-6.08-24.25-105.83-2.49-105.83-2.49h-18.07s-5.73-.08-16.24 3.67-9.13 30.62-31.8 31.39a20.4 20.4 0 0 0 -12.65 4.6c-24 19.65-41.69 42.53-52.49 68-9.75 22.98-12.88 47.36-9.06 70.51a106 106 0 0 0 29.76 58c15.82 15.59 37.67 25.72 61.55 28.57a126.6 126.6 0 0 0 13.54.79 22.2 22.2 0 0 0 -.48 4.88 19.82 19.82 0 0 0 6.57 14.53s7.1 5.92 9.37 8.14 18.71 3.6 23.28 0l9.75-7.69 25.14-19.83h1.07c13.22 15.72 21.54 25.44 24.75 28.91 5.9 6.39 12.38 9.63 19.26 9.63a20.37 20.37 0 0 0 10.28-2.8 22.35 22.35 0 0 0 10.7 2.8 19.84 19.84 0 0 0 14.86-6.57s3.89-6 4.13-9.38-3.69-9.74-3.69-9.74l-10.13-12.85h27.05c21.75 9.64 50.57 14.93 81.68 14.93 29.77 0 58-5 79.46-14 34.54-14.5 41.35-34 41.35-49.56s-6.83-35.04-41.37-49.53z" fill="#fff"/><path d="m350.58 217.19h-117.68c13.07-11 28.13-23.71 32.53-27.77 8.21-7.59 3.4-11.76 3.4-11.76l-50.12 39.53-10.13 8v-.06l-.91.75h140.13c2.41-.01 5.2-8.69 2.78-8.69z" fill="#ed1c24"/><path d="m141.46 182.46c-7.58-8.21-11.75-3.4-11.75-3.4l30.07 38.13h-34.37c-2.49 0-5-.11-7.47-.34-1.17-.11-2.34-.25-3.5-.42a4.14 4.14 0 0 1 -.47-.07l-.59-.09-2-.37a65.62 65.62 0 0 1 -13.13-4.12c-1-.43-1.94-.88-2.89-1.35l-1.36-.73-.65-.35h.07c-.42-.23-.46-.26-.12-.07l-.38-.22a61.05 61.05 0 0 1 -5.44-3.54 59.59 59.59 0 0 1 -9.4-8.52c-.34-.38-.67-.76-1-1.15l-.25-.3-.24-.29.24.29-.29-.36c-.69-.87-1.34-1.75-2-2.65a60.12 60.12 0 0 1 -3.4-5.38 61.44 61.44 0 0 1 -2.85-5.75c-.42-.94-.8-1.9-1.17-2.87-.19-.48-.36-1-.54-1.46.24.71-.26-.75 0 0v-.08c-.12-.33-.22-.66-.33-1a68.12 68.12 0 0 1 -2.73-12.95c-.13-1.08-.22-2.16-.29-3.24 0-.53-.07-1.07-.09-1.6v-.07c0-.37 0-.73 0-1.1 0-2.33 0-4.66.23-7s.49-4.74.89-7.1c.1-.57.21-1.14.32-1.72 0-.06 0-.17.06-.29l-.06.25c.18-.88.12-.57.06-.25 0-.21.08-.41.13-.62.27-1.25.58-2.5.92-3.74q.9-3.37 2.09-6.66c.41-1.17.86-2.33 1.33-3.48.18-.45.36-.88.55-1.32 0 .08 0 0 .17-.42l-.17.42.59-1.34a100.65 100.65 0 0 1 7.75-13.83l.39-.57.06-.09c-.67 1 .53-.79 0 0 .39-.56.79-1.11 1.19-1.67.83-1.14 1.69-2.27 2.56-3.38 1.8-2.29 3.7-4.51 5.66-6.66q1.51-1.66 3.14-3.27l.8-.8.18-.17c.55-.54 1.11-1.08 1.68-1.61 2.32-2.18 4.73-4.27 7.2-6.29 1.63-1.34 3.17-4 2-6.14s-3.96-1.29-5.43-.09c-18.43 15.1-33.77 35.1-39.77 58.48-4.66 18.32-3.4 38.32 5.8 55.08a63.83 63.83 0 0 0 41.62 31.16c8.91 2.06 17.89 2 27 2h46.32l-7.27-8.68c-11.39-13.57-25.38-30.14-29.67-34.78z" fill="#ed1c24"/><path d="m242.15 189.42c8.21-7.59 3.4-11.76 3.4-11.76l-50.12 39.53h-3.36c-11.35-13.52-25.33-30.09-29.62-34.73-7.59-8.21-11.76-3.4-11.76-3.4l30.08 38.13 5.62 7.13 1.22 1.55h11.66l10.31-8.64c13.11-11.01 28.18-23.75 32.57-27.81z" fill="#ed1c24"/><path d="m350.58 250.66h-143l7.27 8.68c11.19 13.33 24.6 29.2 28.79 33.73 7.59 8.22 11.76 3.41 11.76 3.41l-29.29-37.14h121.69c2.41 0 4.54-2.16 5.24-4.33.61-1.93-.04-4.35-2.46-4.35z" fill="#ed1c24"/><path d="m168.32 250.69c-4.53 0-9.06 0-13.6 0-13.39 0-26.78 0-40.17-.06-2.72 0-5.44-.16-8.15-.39-1.27-.1-2.53-.24-3.8-.4-.62-.07-1.25-.16-1.87-.25l-.64-.09h-.29.29l-.88-.14a93.21 93.21 0 0 1 -14.62-3.71 86.43 86.43 0 0 1 -13.18-5.8l-.37-.2.18.1-.18-.1-.55-.32-1.49-.83c-1-.62-2.06-1.28-3.07-1.95-1.93-1.28-3.8-2.65-5.62-4.09a81.61 81.61 0 0 1 -10-9.41c-.73-.81-1.45-1.64-2.15-2.48l-.24-.29a1 1 0 0 1 .13.16l-.13-.16-.38-.48c-.4-.5-.79-1-1.17-1.52-1.38-1.82-2.67-3.7-3.9-5.63a86 86 0 0 1 -6.42-12.2q-.66-1.53-1.26-3.09c-.2-.52-.39-1.05-.58-1.57-.1-.26-.19-.53-.29-.79l-.12-.36c.1.31.08.26-.06-.17l.06.17v-.06c-.75-2.23-1.4-4.49-2-6.77a95.71 95.71 0 0 1 -2.44-14.16c-.12-1.16-.2-2.33-.28-3.5l-.08-1.76v-.16-1.18c-.05-2.5 0-5 .13-7.49a106.17 106.17 0 0 1 1.87-15.29v-.11c-.2 1 .15-.78 0 0 .07-.31.14-.62.2-.93.14-.62.28-1.24.43-1.86.32-1.35.67-2.7 1-4 .72-2.63 1.54-5.22 2.44-7.79s2-5.24 3-7.81v-.1l.42-.93c.28-.63.57-1.25.86-1.88.64-1.36 1.31-2.71 2-4 1.35-2.63 2.8-5.21 4.31-7.75.75-1.25 1.52-2.48 2.3-3.71.39-.61.8-1.23 1.2-1.84.2-.31.41-.61.62-.92l.51-.76-.21.3.21-.3a154.4 154.4 0 0 1 11.89-14.94c2.24-2.52 4.57-5 7-7.35-.4.39.83-.84 0 0l.23-.23.9-.87 1.82-1.73q2-1.87 4.08-3.7c1.84-1.63 3.72-3.21 5.62-4.77 1.63-1.33 3.18-4 2-6.14s-3.94-1.29-5.42-.09c-20.54 16.8-37.75 37.69-48.16 62.24-8.26 19.47-11.52 41.26-8.07 62.2a90.59 90.59 0 0 0 25.48 49.8c14.23 14 33.13 22 52.79 24.33a140.19 140.19 0 0 0 16.52.71h27.58c-6 5.06-10.82 9.27-13 11.29-8.22 7.59-3.41 11.76-3.41 11.76l29.23-23.05z" fill="#ed1c24"/><path d="m190.28 250.66h-12.22c-3.56 3-7.05 6-10.23 8.67-6 5.06-10.82 9.27-13 11.29-8.21 7.59-3.4 11.76-3.4 11.76l29.23-23.05h13.24c11.19 13.33 24.6 29.2 28.78 33.73 7.59 8.22 11.76 3.41 11.76 3.41l-29.29-37.14-6.85-8.68h-8z" fill="#ed1c24"/><path d="m326.09 233.9h-200.2a137.92 137.92 0 0 1 -15.07-.54c-1.12-.12-2.25-.27-3.37-.44.17 0 .22 0-.24 0h.24l-.48-.07-.88-.16-2-.39c-2.38-.48-4.73-1.08-7-1.78a75.76 75.76 0 0 1 -13-5.24c-.49-.25-1-.51-1.45-.77.54.31-.67-.37 0 0l-.1-.06-.71-.4c-1-.59-2-1.21-3-1.85-1.88-1.21-3.69-2.52-5.44-3.91a70 70 0 0 1 -9.55-9.14c-.35-.4-.69-.8-1-1.21l-.16-.2.08.1c-.43-.52-.26-.31-.08-.1l-.41-.52c-.71-.89-1.39-1.81-2.06-2.74-1.28-1.79-2.47-3.65-3.59-5.55a76.69 76.69 0 0 1 -5.68-12.06l-.4-1.14.08.26c-.1-.31-.12-.35-.08-.26-.15-.43-.29-.85-.42-1.28-.36-1.12-.69-2.25-1-3.39-.6-2.21-1.09-4.45-1.5-6.7s-.73-4.59-.95-6.9c-.11-1.13-.19-2.26-.25-3.38 0-.29 0-.57-.05-.86v-.11c0-.67 0-1.33 0-2a91.4 91.4 0 0 1 1-14.59c.18-1.19.38-2.38.61-3.56l.12-.64v-.25a2.21 2.21 0 0 1 0 .25c0-.13.06-.28.07-.34.15-.7.31-1.4.47-2.1q.9-3.78 2.09-7.49c.8-2.55 1.72-5.05 2.72-7.53q.36-.9.75-1.8c0-.06.07-.17.12-.29l-.09.2c.39-.88.23-.53.09-.2.11-.23.21-.47.32-.7.59-1.32 1.21-2.62 1.85-3.91 1.26-2.54 2.63-5 4.07-7.48.72-1.2 1.45-2.39 2.2-3.57.38-.6.77-1.19 1.16-1.78l.6-.89c.1-.15.21-.3.31-.46v.06l.13-.19-.09.13a136.73 136.73 0 0 1 11.5-14.47c1-1.15 2.14-2.27 3.23-3.39l.84-.84.32-.32-.12.11c.59-.58.37-.37.12-.11.63-.62 1.26-1.23 1.9-1.83 2.49-2.37 5.07-4.64 7.7-6.84l1.3-1.07c1.64-1.33 3.18-4 2-6.14s-3.94-1.29-5.42-.09c-19.55 16-35.84 36.37-44.34 60.34-6.65 18.73-8.06 39.7-2.16 58.81 5.39 17.49 16.63 32.88 32.29 42.53a78.71 78.71 0 0 0 26.81 10.33c10.09 1.9 20.26 1.61 30.47 1.61h192c2.4 0 4.54-2.16 5.23-4.33.62-1.95-.08-4.38-2.45-4.38z" fill="#231f20"/><path d="m224 122.24c-.1-.96 0 1.3 0 0z" fill="#e32a26"/><path d="m267.51 33c.77-.76-.36.35 0 0z" fill="#030303"/><path d="m211.2 134.63c-.05-1.16.02.76 0 0z" fill="#030303"/><path d="m122.31 155c-2.8 0-3.31-1.27-3.31-3.56v-38.44h-18.82v44.37c0 10.31 3.43 16.54 21.37 16.54 18.44 0 25.18-4.71 25.18-19.59v-94.73h-21.11v91.83c0 2.29-.51 3.56-3.31 3.56m24.42-127.2h-21.11v9.11h21.11zm31.27 80.53v-6.1c0-4.33.38-6.61 6-6.61 5.35 0 6 .63 6 8.77v4.46h18.83v-11.07c0-12.85-6.11-17.94-24.43-17.94-20.09 0-26.71 2.16-26.71 23.66v5.6c0 16.41 3.18 20.35 19.59 24.3 11.07 2.66 12.47 3.05 12.47 9.4v9.93c0 3.94-1.53 5.47-6.24 5.47-6.23 0-6.23-2.55-6.23-8.91v-6.61h-19.61v7.63c0 18.32 4.2 23.66 27.09 23.66 17.94 0 26.08-3.94 26.08-26.07 0-23.67-2.54-25.32-25.06-31.17-6.23-1.53-7.76-2.54-7.76-8.4m75.56.52h18.82v-11.07c0-12.85-6.1-17.94-24.42-17.94-20.09 0-26.71 2.16-26.71 23.66v5.6c0 16.41 3.18 20.35 19.59 24.3 11.07 2.66 12.47 3.05 12.47 9.4v9.93c0 3.94-1.53 5.47-6.24 5.47-6.23 0-6.23-2.55-6.23-8.91v-6.61h-19.59v7.63c0 18.32 4.2 23.66 27.1 23.66 17.93 0 26.07-3.94 26.07-26.07 0-23.67-2.54-25.32-25.05-31.17-6.24-1.53-7.76-2.54-7.76-8.4v-6.1c0-4.33.37-6.61 6-6.61 5.35 0 6 .63 6 8.77z" fill="#030303"/><path d="m136.17 57.69a9.18 9.18 0 1 0 -9.17-9.18 9.17 9.17 0 0 0 9.18 9.18" fill="#030303"/><path d="m135.79 48.81 3.64-5.39" fill="none" stroke="#fff" stroke-width="1.38"/><path d="m135.82 48.28 3.55 1.43" fill="none" stroke="#fff" stroke-width="1.38"/><path d="m128.2 48.51h-1.37" fill="none" stroke="#fff" stroke-width="1.38"/><path d="m145.34 48.51h-1.37" fill="none" stroke="#fff" stroke-width="1.38"/><path d="m136.17 39.33v1.37" fill="none" stroke="#fff" stroke-width="1.38"/><path d="m136.17 56.31v1.37" fill="none" stroke="#fff" stroke-width="1.38"/><path d="m129.37 17.25v10.53" fill="none" stroke="#1d1e1c" stroke-width="1.38"/><path d="m126.27 19.89h6.32" fill="none" stroke="#1d1e1c" stroke-width="1.38"/><path d="m126.27 22.76h6.32" fill="none" stroke="#1d1e1c" stroke-width="1.38"/><path d="m149 69.66h-.08z" fill="#030303"/><path d="m131.5 55-.25-.3c.33.45.34.45.25.3z" fill="#030303"/><path d="m120.68 35.51c-.27-.79.26.75 0 0z" fill="#030303"/><path d="m265 85.41c-.71-.39.57.33 0 0z" fill="#e32a26"/><path d="m168.4 103.52a1.18 1.18 0 0 1 -.19-.11c-.21-.1-.29-.15.19.11z" fill="#030303"/><path d="m248.94 39.78c.79-.78-.45.44 0 0z" fill="#030303"/><path d="m224.2 49.39v-.06l.08-.12c-.28.54-.37.59-.08.18z" fill="#e32a26"/><path d="m238.79 32.08a1.14 1.14 0 0 1 .11-.11z" fill="#e32a26"/><path d="m211 45.74.2-.28c.15-.19.17-.23-.2.28z" fill="#030303"/><g fill="#010101"><path d="m158.35 43.6h3l-.46 3.1c-.08.5 0 .78.4.78s.57-.28.64-.78l2.39-16h3.34l-2.41 16.11c-.48 3.26-1.7 4.29-4.62 4.29s-3.17-1.37-2.83-3.62z"/><path d="m169.56 44.36-1-13.66h3.3v9.08l2.7-9.08h3.3l-5.09 13.66-1 6.52h-3.21z"/><path d="m178.13 30.7h3.41l-1.31 17.72 4-17.72h3.42l-4.94 20.18h-5.67z"/><path d="m190 30.7h5.42l-.81 20.18h-3.4l.3-4.85h-2.17l-1.15 4.85h-3.39zm.07-4.43h2.62l-.49 3.29h-2.62zm2.24 7.22-2.13 9.08h1.6zm1.69-7.22h2.62l-.49 3.29h-2.62z"/><path d="m199.59 45.69c-.21 1.4-.29 2 .69 2 .75 0 1-.33 1.17-1.19l.32-2.18c.21-1.39 0-1.48-1.66-2.06-2.46-.86-2.84-1.73-2.3-5.32l.18-1.23c.7-4.71 1.82-5.18 5-5.18 2.9 0 3.7 1.11 3.28 3.93l-.36 2.42h-3l.15-1c.26-1.78.18-1.92-.66-1.92s-1 .5-1.16 1.45l-.2 1.34c-.19 1.28 0 1.5.95 1.84 3.37 1.28 3.71 1.64 2.94 6.83-.72 4.85-2.14 5.71-5 5.71-3.62 0-4.11-1.17-3.51-5.18l.25-1.68h3.1z"/><path d="m209.06 30.7h3.34l-1.27 8.5 3.41-8.55h3.58l-4.27 9.59 1.62 10.59h-3.57l-1.15-9v.06l-1.33 9h-3.34z"/><path d="m219.43 44.36-1-13.66h3.29v9.08l2.7-9.08h3.29l-5.09 13.66-1 6.52h-3.22z"/><path d="m228.84 30.7h3.34l-2.47 16.55h3.23l-.54 3.63h-6.57z"/><path d="m238.43 30.7h5.42l-.85 20.18h-3.4l.3-4.85h-2.17l-1.15 4.85h-3.39zm.07-4.43h2.62l-.49 3.29h-2.63zm2.25 7.22-2.14 9.08h1.6zm1.73-7.22h2.62l-.49 3.29h-2.61z"/><path d="m161 67.65c-.21 1.39-.3 1.95.69 1.95.74 0 1-.34 1.16-1.2l.33-2.17c.2-1.4 0-1.48-1.67-2.07-2.46-.86-2.83-1.72-2.3-5.32l.19-1.23c.7-4.71 1.81-5.18 5-5.18 2.89 0 3.69 1.11 3.27 3.93l-.36 2.42h-3l.14-1c.27-1.78.19-1.92-.66-1.92s-1 .5-1.16 1.45l-.2 1.33c-.19 1.29 0 1.51 1 1.84 3.36 1.28 3.71 1.65 2.94 6.83-.73 4.85-2.14 5.71-5 5.71-3.62 0-4.11-1.17-3.51-5.18l.25-1.67h3.09z"/><path d="m176.54 68c-.67 4.49-2.3 5-5 5s-4.14-.55-3.47-5l2.29-15.36h3.33l-2.31 15.5c-.11.78 0 1.28.7 1.28s1-.5 1.07-1.28l2.31-15.5h3.34z"/><path d="m183.49 55.77-2.54 17.06h-3l3-20.18h5.24l-.74 15.89 4-15.89h5.25l-3 20.18h-3l2.66-17-4.69 17h-3.82z"/><path d="m199.49 55.77-2.59 17.06h-3l3-20.18h5.24l-.74 15.89 4-15.89h5.25l-3 20.18h-3l2.66-17-4.69 17h-3.82z"/><path d="m212.94 52.65h6.41l-.54 3.63h-3.08l-.66 4.43h2.86l-.52 3.45h-2.85l-.75 5h3.31l-.54 3.62h-6.65z"/><path d="m221.5 52.65h4.12c3.58 0 4.43 1 3.86 4.82l-.36 2.43c-.45 3.07-1.42 3.76-2.88 4.1 1.42.45 2.15.81 1.78 3.29l-.81 5.49h-3.34l.86-5.77c.12-.83-.16-1.2-1.29-1.2h-.56l-1 7h-3.34zm1.88 9.76h.62c1.18 0 1.45-.45 1.64-1.76l.46-3c.15-1-.08-1.5-.8-1.5h-1z"/><path d="m237.92 67.65c-.21 1.39-.29 1.95.69 1.95.75 0 1-.34 1.17-1.2l.32-2.17c.21-1.4 0-1.48-1.66-2.07-2.47-.86-2.84-1.72-2.3-5.32l.18-1.23c.7-4.71 1.82-5.18 5-5.18 2.9 0 3.69 1.11 3.28 3.93l-.37 2.42h-3l.14-1c.27-1.78.19-1.92-.65-1.92s-1 .5-1.16 1.45l-.2 1.33c-.2 1.29 0 1.51 1 1.84 3.36 1.28 3.71 1.65 2.94 6.83-.72 4.85-2.14 5.71-5 5.71-3.62 0-4.11-1.17-3.51-5.18l.21-1.64h3.09z"/><path d="m248.36 56.28h-2.36l.54-3.63h8l-.54 3.63h-2.33l-2.47 16.55h-3.33z"/><path d="m256.8 52.65h5.42l-.81 20.18h-3.41l.3-4.85h-2.17l-1.13 4.85h-3.4zm2.31 2.79-2.13 9.09h1.6z"/><path d="m265.84 52.65h4.16c3.58 0 4.43 1 3.87 4.82l-.37 2.43c-.5 3.1-1.5 3.76-2.92 4.1 1.42.45 2.15.81 1.78 3.29l-.81 5.49h-3.35l.86-5.77c.12-.83-.16-1.2-1.29-1.2h-.56l-1 7h-3.34zm1.88 9.76h.65c1.18 0 1.45-.45 1.64-1.76l.46-3c.15-1-.08-1.5-.8-1.5h-1z"/><path d="m278 56.28h-2.33l.54-3.63h8l-.54 3.63h-2.37l-2.47 16.55h-3.33z"/></g><g clip-path="url(#a)"><path d="m470 220.92c0-24.14-46.63-43.71-104.15-43.71s-104.17 19.57-104.17 43.71 46.64 43.71 104.17 43.71 104.15-19.57 104.15-43.71z" fill="#fff" stroke="#b4b4b4" stroke-miterlimit="10" stroke-width="12"/></g><path d="m470 230.56c0-24.14-46.63-43.71-104.15-43.71s-104.17 19.57-104.17 43.71 46.64 43.71 104.17 43.71 104.15-19.57 104.15-43.71z" fill="none" stroke="#030303" stroke-miterlimit="10" stroke-width="6.66"/><path d="m412.45 217.09c0 9.48-21.32 17.18-47.6 17.18s-47.6-7.7-47.6-17.18 21.31-17.18 47.6-17.18 47.6 7.69 47.6 17.18z" fill="#fff" stroke="#b4b4b4" stroke-miterlimit="10" stroke-width="5.33"/></svg>